HIERARCHY
ROOT Root
{
	OFFSET 0.00000 0.00000 0.00000
	CHANNELS 6 Xposition Yposition Zposition Zrotation Xrotation Yrotation
	JOINT Hips
	{
		OFFSET 0 0 0	
		CHANNELS 3 Zrotation Xrotation Yrotation
		JOINT Spine
		{
			OFFSET 0 4 0	
			CHANNELS 3 Zrotation Xrotation Yrotation
			JOINT Spine1
			{
				OFFSET 0 19.4 0	
				CHANNELS 3 Zrotation Xrotation Yrotation
				JOINT Spine2
				{
					OFFSET 0 16.6 0	
					CHANNELS 3 Zrotation Xrotation Yrotation
					JOINT LeftCollar
					{
						OFFSET 0 10 0	
						CHANNELS 3 Zrotation Xrotation Yrotation
						JOINT LeftArm
						{
							OFFSET 15.6 -2 3	
							CHANNELS 3 Zrotation Xrotation Yrotation
							JOINT LeftForeArm
							{
								OFFSET 3.5 -27 -1	
								CHANNELS 3 Zrotation Xrotation Yrotation
								JOINT LeftHand
								{
									OFFSET 1 -27 1	
									CHANNELS 3 Zrotation Xrotation Yrotation
									End Site
									{
										OFFSET 0 -15 0
									}
								}
							}
						}
					}
					JOINT RightCollar
					{
						OFFSET 0 10 0	
						CHANNELS 3 Zrotation Xrotation Yrotation
						JOINT RightArm
						{
							OFFSET -15.6 -2 3	
							CHANNELS 3 Zrotation Xrotation Yrotation
							JOINT RightForeArm
							{
								OFFSET -3.5 -27 -1	
								CHANNELS 3 Zrotation Xrotation Yrotation
								JOINT RightHand
								{
									OFFSET -1 -27 1	
									CHANNELS 3 Zrotation Xrotation Yrotation
									End Site
									{
										OFFSET 0 -15 0
									}
								}
							}
						}
					}
					JOINT Neck
					{
						OFFSET 0 10 0	
						CHANNELS 3 Zrotation Xrotation Yrotation
						JOINT Head
						{
							OFFSET 0 12.7 3	
							CHANNELS 3 Zrotation Xrotation Yrotation
							End Site
							{
								OFFSET 0 12.7 3
							}
						}
					}
				}
			}
		}
	}
	JOINT LeftHip
	{
		OFFSET 0 0 0	
		CHANNELS 3 Zrotation Xrotation Yrotation
		JOINT LeftUpLeg
		{
			OFFSET 8.8 -6 0	
			CHANNELS 3 Zrotation Xrotation Yrotation
			JOINT LeftLeg
			{
				OFFSET 0 -39 2	
				CHANNELS 3 Zrotation Xrotation Yrotation
				JOINT LeftFoot
				{
					OFFSET 0 -43 -2	
					CHANNELS 3 Zrotation Xrotation Yrotation
					JOINT LeftFootFront
					{
						OFFSET 0 -7 8.5	
						CHANNELS 3 Zrotation Xrotation Yrotation
						End Site
						{
							OFFSET 0 -0.5 9
						}
					}
				}
				JOINT LeftHeel
				{
					OFFSET 0 -43 -2	
					CHANNELS 3 Zrotation Xrotation Yrotation
					End Site
					{
						OFFSET 0 -7.5 -5
					}
				}
			}
		}
	}
	JOINT RightHip
	{
		OFFSET 0 0 0	
		CHANNELS 3 Zrotation Xrotation Yrotation
		JOINT RightUpLeg
		{
			OFFSET -8.8 -6 0	
			CHANNELS 3 Zrotation Xrotation Yrotation
			JOINT RightLeg
			{
				OFFSET 0 -39 2	
				CHANNELS 3 Zrotation Xrotation Yrotation
				JOINT RightFoot
				{
					OFFSET 0 -43 -2	
					CHANNELS 3 Zrotation Xrotation Yrotation
					JOINT RightFootFront
					{
						OFFSET 0 -7 8.5	
						CHANNELS 3 Zrotation Xrotation Yrotation
						End Site
						{
							OFFSET 0 -0.5 9
						}
					}
				}
				JOINT RightHeel
				{
					OFFSET 0 -43 -2	
					CHANNELS 3 Zrotation Xrotation Yrotation
					End Site
					{
						OFFSET 0 -7.5 -5
					}
				}
			}
		}
	}
}
MOTION
Frames: 19
Frame Time: 0.05
0 95.5 0 -0 0 -0 -2.1313 8.1026 63.885 -6.5192 0.81929 -2.9909 -6.5193 0.81929 -2.9909 -5.4791 0.66543 -2.5189 -0 0 -0 14.96 1.5667 -6.6671 -51.855 -25.363 -52.436 -2.338 -12.194 -13.937 -0 0 -0 -100.26 -83.415 -118.4 -26.919 -22.132 15.978 -1.9007 0.49687 -40.618 1.7738 -20.679 -19.599 1.7738 -20.679 -19.599 -0 0 -0 -0 0 -0 -0 0 -0 -0 0 -0 -0 0 -0 -0 0 -0 -0 0 -0 -0 0 -0 -0 0 -0 -0 0 -0 -0 0 -0 -0 0 -0 
0 95.5 0 -0 0 -0 -1.563 9.5465 64.586 -7.7005 1.0382 -2.8773 -7.7005 1.0382 -2.8773 -6.472 0.84627 -2.4267 -0 0 -0 17.466 1.5472 -6.8811 -52.145 -25.664 -52.994 -2.4481 -12.026 -13.548 -0 0 -0 -119.1 -81.187 -136.99 -28.286 -21.021 14.69 -1.5177 -0.28781 -39.008 2.2104 -21.11 -19.908 2.2104 -21.11 -19.908 -0 0 -0 -0 0 -0 -0 0 -0 -0 0 -0 -0 0 -0 -0 0 -0 -0 0 -0 -0 0 -0 -0 0 -0 -0 0 -0 -0 0 -0 -0 0 -0 
0 95.5 0 -0 0 -0 -0.88943 10.668 64.931 -8.7108 1.3113 -2.5296 -8.7108 1.3113 -2.5296 -7.3208 1.0759 -2.1386 -0 0 -0 19.857 1.1848 -7.3587 -52.486 -25.984 -53.953 -2.5848 -11.723 -12.742 -0 0 -0 -130.25 -78.691 -148.48 -29.609 -20.5 14.248 -0.92219 -1.1911 -37.317 2.5455 -21.596 -20.087 2.5455 -21.596 -20.087 -0 0 -0 -0 0 -0 -0 0 -0 -0 0 -0 -0 0 -0 -0 0 -0 -0 0 -0 -0 0 -0 -0 0 -0 -0 0 -0 -0 0 -0 -0 0 -0 
0 95.5 0 -0 0 -0 -0.30577 11.711 64.935 -9.5613 1.4094 -2.0927 -9.5613 1.4094 -2.0927 -8.0347 1.1607 -1.7741 -0 0 -0 21.837 0.76636 -7.9537 -53.039 -26.246 -54.792 -2.584 -11.201 -12.144 -0 0 -0 -137.36 -76.665 -155.27 -31.032 -19.719 13.066 -0.21789 -1.9059 -35.843 2.9765 -21.85 -20.102 2.9765 -21.85 -20.102 -0 0 -0 -0 0 -0 -0 0 -0 -0 0 -0 -0 0 -0 -0 0 -0 -0 0 -0 -0 0 -0 -0 0 -0 -0 0 -0 -0 0 -0 -0 0 -0 
0 95.5 0 -0 0 -0 0.12714 12.477 64.69 -10.145 1.3698 -1.4612 -10.145 1.3698 -1.4612 -8.5237 1.1336 -1.244 -0 0 -0 23.181 0.19671 -9.1267 -53.829 -26.483 -55.108 -2.5017 -10.468 -12.262 -0 0 -0 -135.26 -75.296 -152.12 -30.855 -19.936 13.871 -0.33874 -2.3329 -35.169 3.4421 -21.811 -20.479 3.4421 -21.811 -20.479 -0 0 -0 -0 0 -0 -0 0 -0 -0 0 -0 -0 0 -0 -0 0 -0 -0 0 -0 -0 0 -0 -0 0 -0 -0 0 -0 -0 0 -0 -0 0 -0 
0 95.5 0 -0 0 -0 0.41314 12.84 64.407 -10.274 1.2411 -0.80678 -10.274 1.2411 -0.80678 -8.6312 1.0331 -0.69284 -0 0 -0 23.226 -0.31801 -10.408 -54.059 -26.287 -55.265 -2.3907 -10.315 -12.253 -0 0 -0 -124.74 -75.138 -140.4 -27.607 -23.371 15.502 -3.2052 -3.6488 -33.708 3.5093 -21.504 -21.296 3.5093 -21.504 -21.296 -0 0 -0 -0 0 -0 -0 0 -0 -0 0 -0 -0 0 -0 -0 0 -0 -0 0 -0 -0 0 -0 -0 0 -0 -0 0 -0 -0 0 -0 -0 0 -0 
0 95.5 0 -0 0 -0 0.62681 12.679 64.146 -9.9011 1.4608 -0.10466 -9.9011 1.4608 -0.10465 -8.3168 1.2262 -0.10491 -0 0 -0 22.074 -1.6176 -11.563 -53.833 -25.242 -55.494 -1.9261 -11.004 -11.82 -0 0 -0 -111.38 -75.361 -128.23 -21.141 -31.041 19.479 -9.4188 -4.4348 -31.145 2.554 -21.583 -22.486 2.554 -21.583 -22.486 -0 0 -0 -0 0 -0 -0 0 -0 -0 0 -0 -0 0 -0 -0 0 -0 -0 0 -0 -0 0 -0 -0 0 -0 -0 0 -0 -0 0 -0 -0 0 -0 
0 95.5 0 -0 0 -0 0.72161 12.028 63.818 -9.242 1.7022 0.21827 -9.242 1.7022 0.21827 -7.7624 1.4326 0.16491 -0 0 -0 20.785 -2.5395 -12.168 -53.861 -24.141 -55.571 -1.2461 -11.528 -11.363 -0 0 -0 -99.854 -75.855 -122.23 -9.9759 -38.983 30.214 -12.976 -1.0134 -29.422 1.6275 -21.403 -23.134 1.6275 -21.403 -23.134 -0 0 -0 -0 0 -0 -0 0 -0 -0 0 -0 -0 0 -0 -0 0 -0 -0 0 -0 -0 0 -0 -0 0 -0 -0 0 -0 -0 0 -0 -0 0 -0 
0 95.5 0 -0 0 -0 0.83166 11.066 63.208 -8.5784 1.5877 0.070233 -8.5784 1.5877 0.070238 -7.2054 1.3346 0.043023 -0 0 -0 19.982 -1.9978 -12.324 -54.148 -24.043 -55.554 -1.1695 -11.242 -10.665 -0 0 -0 -82.604 -77.566 -111.5 3.6643 -44.228 42.072 -10.71 6.3073 -29.261 1.239 -20.656 -23.082 1.239 -20.656 -23.082 -0 0 -0 -0 0 -0 -0 0 -0 -0 0 -0 -0 0 -0 -0 0 -0 -0 0 -0 -0 0 -0 -0 0 -0 -0 0 -0 -0 0 -0 -0 0 -0 
0 95.5 0 -0 0 -0 0.97692 10.19 62.144 -7.718 1.7545 -0.083191 -7.718 1.7545 -0.083187 -6.4829 1.4733 -0.085779 -0 0 -0 18.397 -2.287 -12.181 -54.513 -24.449 -55.711 -1.5124 -10.611 -9.2639 -0 0 -0 -57.173 -78.255 -91.04 18.402 -47.578 54.252 -9.3147 11.979 -27.444 0.53554 -20.502 -22.902 0.53554 -20.502 -22.902 -0 0 -0 -0 0 -0 -0 0 -0 -0 0 -0 -0 0 -0 -0 0 -0 -0 0 -0 -0 0 -0 -0 0 -0 -0 0 -0 -0 0 -0 -0 0 -0 
0 95.5 0 -0 0 -0 1.0938 9.6727 60.858 -6.802 1.7054 -0.33835 -6.802 1.7054 -0.33835 -5.714 1.43 -0.29784 -0 0 -0 16.073 -2.3001 -11.395 -54.451 -24.38 -55.789 -1.8681 -10.403 -8.6631 -0 0 -0 -30.576 -76.471 -67.57 31.859 -49.637 66.552 -7.4462 15.889 -26.798 -0.24697 -20.538 -22.376 -0.24697 -20.538 -22.376 -0 0 -0 -0 0 -0 -0 0 -0 -0 0 -0 -0 0 -0 -0 0 -0 -0 0 -0 -0 0 -0 -0 0 -0 -0 0 -0 -0 0 -0 -0 0 -0 
0 95.5 0 -0 0 -0 1.1018 9.4639 59.631 -6.1175 1.1413 -0.56084 -6.1175 1.1413 -0.56085 -5.1394 0.95474 -0.47934 -0 0 -0 14.094 -1.2031 -10.747 -54.139 -23.642 -55.823 -1.9242 -10.676 -8.7914 -0 0 -0 -12.803 -73.098 -51.953 41.66 -48.347 74.32 -8.2766 18.216 -24.368 -0.95848 -20.21 -21.74 -0.95848 -20.21 -21.74 -0 0 -0 -0 0 -0 -0 0 -0 -0 0 -0 -0 0 -0 -0 0 -0 -0 0 -0 -0 0 -0 -0 0 -0 -0 0 -0 -0 0 -0 -0 0 -0 
0 95.5 0 -0 0 -0 0.91126 9.5358 58.488 -5.7001 0.60409 -0.73508 -5.7001 0.60409 -0.73508 -4.7886 0.50256 -0.62155 -0 0 -0 12.903 -0.28445 -10.615 -54.116 -23.32 -55.82 -1.9245 -10.398 -8.6444 -0 0 -0 -3.9681 -71.676 -44.182 44.154 -45.919 78.13 -9.6161 16.895 -23.264 -1.1695 -19.873 -21.216 -1.1695 -19.873 -21.216 -0 0 -0 -0 0 -0 -0 0 -0 -0 0 -0 -0 0 -0 -0 0 -0 -0 0 -0 -0 0 -0 -0 0 -0 -0 0 -0 -0 0 -0 -0 0 -0 
0 95.5 0 -0 0 -0 0.6432 9.464 57.384 -5.3256 0.4291 -0.91826 -5.3256 0.4291 -0.91826 -4.4739 0.35473 -0.77408 -0 0 -0 12.054 -0.14663 -10.779 -54.379 -23.997 -55.694 -2.3302 -9.5063 -8.7525 -0 0 -0 2.1337 -72.306 -34.275 40.889 -46.953 75.835 -11.866 14 -21.911 -1.1654 -19.933 -20.806 -1.1654 -19.933 -20.806 -0 0 -0 -0 0 -0 -0 0 -0 -0 0 -0 -0 0 -0 -0 0 -0 -0 0 -0 -0 0 -0 -0 0 -0 -0 0 -0 -0 0 -0 -0 0 -0 
0 95.5 0 -0 0 -0 0.43864 9.0558 56.401 -4.9869 0.39242 -1.0231 -4.9869 0.39242 -1.0231 -4.1895 0.32368 -0.86173 -0 0 -0 11.274 -0.20072 -10.863 -54.175 -24.683 -55.888 -3.174 -8.8806 -8.6028 -0 0 -0 5.0096 -73.518 -26.491 38.141 -48.422 72.904 -11.762 13.858 -20.801 -1.3079 -19.91 -20.55 -1.3079 -19.91 -20.55 -0 0 -0 -0 0 -0 -0 0 -0 -0 0 -0 -0 0 -0 -0 0 -0 -0 0 -0 -0 0 -0 -0 0 -0 -0 0 -0 -0 0 -0 -0 0 -0 
0 95.5 0 -0 0 -0 -0.012051 8.4274 55.528 -4.8137 0.26987 -0.96112 -4.8137 0.26987 -0.96112 -4.0438 0.22128 -0.80891 -0 0 -0 11.05 -0.24647 -11.028 -53.586 -24.511 -55.659 -3.5662 -9.1261 -8.9155 -0 0 -0 6.4403 -75.329 -23.348 38.511 -47.101 74.305 -11.725 14.996 -18.184 -1.2169 -19.658 -20.625 -1.2169 -19.658 -20.625 -0 0 -0 -0 0 -0 -0 0 -0 -0 0 -0 -0 0 -0 -0 0 -0 -0 0 -0 -0 0 -0 -0 0 -0 -0 0 -0 -0 0 -0 -0 0 -0 
0 95.5 0 -0 0 -0 -0.74665 8.0166 54.716 -4.7263 -0.18135 -0.9112 -4.7263 -0.18135 -0.9112 -3.9699 -0.1574 -0.76445 -0 0 -0 11.187 0.25639 -11.336 -53.214 -24.056 -55.121 -3.4873 -9.182 -9.7836 -0 0 -0 6.769 -76.854 -19.936 36.851 -46.369 73.848 -10.977 15.309 -16.238 -1.0313 -19.146 -20.709 -1.0313 -19.146 -20.709 -0 0 -0 -0 0 -0 -0 0 -0 -0 0 -0 -0 0 -0 -0 0 -0 -0 0 -0 -0 0 -0 -0 0 -0 -0 0 -0 -0 0 -0 -0 0 -0 
0 95.5 0 -0 0 -0 -1.2165 7.5861 53.67 -4.6716 -0.41336 -0.78414 -4.6716 -0.41336 -0.78413 -3.9238 -0.35154 -0.65645 -0 0 -0 11.509 0.59092 -11.853 -53.223 -24.06 -55.232 -3.5416 -8.5619 -9.143 -0 0 -0 7.0157 -79.296 -14.819 31.668 -46.951 69.742 -9.1403 14.869 -16.133 -0.94752 -18.92 -20.732 -0.94753 -18.92 -20.732 -0 0 -0 -0 0 -0 -0 0 -0 -0 0 -0 -0 0 -0 -0 0 -0 -0 0 -0 -0 0 -0 -0 0 -0 -0 0 -0 -0 0 -0 -0 0 -0 
0 95.5 0 -0 0 -0 -1.2306 6.6558 52.469 -4.4741 -0.18857 -0.69067 -4.4741 -0.18858 -0.69067 -3.7581 -0.16204 -0.5792 -0 0 -0 11.599 0.57518 -12.246 -53.968 -24.112 -55.211 -3.0128 -7.8856 -8.8494 -0 0 -0 8.7467 -82.69 -8.8265 25.812 -46.65 64.249 -6.2487 13.707 -17.13 -0.94735 -18.917 -20.589 -0.94735 -18.917 -20.589 -0 0 -0 -0 0 -0 -0 0 -0 -0 0 -0 -0 0 -0 -0 0 -0 -0 0 -0 -0 0 -0 -0 0 -0 -0 0 -0 -0 0 -0 -0 0 -0 
